<?xml version="1.0" standalone="no"?>
<!DOCTYPE svg PUBLIC "-//W3C//DTD SVG 20010904//EN"
 "http://www.w3.org/TR/2001/REC-SVG-20010904/DTD/svg10.dtd">
<svg version="1.0" xmlns="http://www.w3.org/2000/svg"
 width="100%" height="100%" viewBox="370 125 658 553"
 preserveAspectRatio="xMidYMid meet">
<style>
  /* TEMA CHIARO: Tutta l'icona è Nera */
  .logo-path { fill: #0A0A0A; }
  /* TEMA SCURO: Tutta l'icona è Gialla */
  @media (prefers-color-scheme: dark) {
    .logo-path { fill: #FFD600; }
  }
</style>
<g transform="translate(0.000000,768.000000) scale(0.100000,-0.100000)" stroke="none" class="logo-path">
<path d="M8695 6219 c-568 -17 -2702 -76 -3080 -85 -137 -3 -261 -7 -275 -9
-14 -2 -107 -4 -207 -4 l-183 -1 0 -279 0 -279 203 -6 c111 -3 578 -13 1037
-21 938 -17 2122 -41 2457 -51 l223 -6 306 -314 306 -313 5 -853 6 -853 -75
-125 c-249 -416 -498 -843 -494 -848 7 -6 634 10 643 17 8 5 116 177 508 806
l87 140 -6 1029 -7 1029 -106 111 c-58 61 -279 294 -492 519 l-386 407 -110
-2 c-60 0 -222 -5 -360 -9z"/>
<path d="M4639 6032 c-25 -31 -173 -218 -327 -414 -155 -196 -311 -394 -347
-438 -36 -45 -65 -89 -65 -98 0 -10 23 -307 50 -662 28 -355 64 -823 80 -1040
43 -576 102 -1325 104 -1326 0 -1 340 3 754 9 413 6 754 8 756 6 2 -2 11 -103
20 -224 22 -302 56 -728 59 -738 1 -4 29 12 62 36 101 74 786 577 860 632 305
226 386 285 430 316 l50 36 570 12 c314 6 651 14 751 18 l181 6 25 41 c14 23
97 154 183 291 87 138 160 256 163 264 5 12 -20 13 -159 8 -90 -4 -353 -14
-584 -22 -231 -8 -481 -17 -555 -20 -74 -2 -243 -8 -375 -11 -185 -5 -247 -10
-270 -22 -26 -13 -639 -458 -797 -579 l-58 -44 0 314 0 315 -142 6 c-138 6
-564 19 -1115 33 -144 3 -267 9 -272 13 -8 4 -6 485 5 1556 8 852 14 1602 12
1666 l-3 118 -46 -58z"/>
<path d="M5400 4105 l0 -1025 313 0 c173 0 537 3 811 7 l497 6 174 186 175
186 0 640 0 640 -186 193 -186 192 -799 0 -799 0 0 -1025z m1249 480 l61 -65
0 -411 0 -411 -61 -69 -62 -69 -263 0 -264 0 0 545 0 545 264 0 263 0 62 -65z"/>
<path d="M8005 4489 c-148 -143 -303 -293 -343 -333 l-74 -73 342 -329 c188
-181 346 -330 351 -332 5 -2 9 90 9 217 0 122 3 221 8 221 4 0 106 -14 227
-30 411 -57 510 -70 538 -70 l27 0 0 330 0 331 -32 -6 c-61 -10 -737 -105
-753 -105 -13 0 -15 29 -15 220 0 121 -3 220 -7 220 -5 -1 -129 -118 -278
-261z"/>
</g>
</svg>
